<?xml version="1.0" encoding="utf-8"?>
<!-- Generator: Adobe Illustrator 21.0.0, SVG Export Plug-In . SVG Version: 6.00 Build 0)  -->
<svg version="1.1" id="Layer_1" xmlns="http://www.w3.org/2000/svg" xmlns:xlink="http://www.w3.org/1999/xlink" x="0px" y="0px"
	 viewBox="0 0 50 50" style="enable-background:new 0 0 50 50;" xml:space="preserve">
<style type="text/css">
	.st0{fill:#FFFFFF;}
	.st1{fill:#082044;}
</style>
<path class="st0" d="M50,47.8c0,1.2-0.9,2.1-2.1,2.2H2.1C0.9,49.9,0,49,0,47.8V2.2C0,1,0.9,0.1,2.1,0h45.8C49.1,0.1,50,1,50,2.2
	V47.8z"/>
<title>icon-elsalg</title>
<path class="st1" d="M49,46.9c0,1.1-0.9,2-2,2.1H3c-1.1-0.1-2-1-2-2.1V3.1C1,2,1.9,1.1,3,1H47c1.1,0.1,2,1,2,2.1V46.9z"/>
<path class="st0" d="M14.9,40.2c0,1.5-0.9,3.4-4.4,3.4c-1.2,0-2.4-0.3-3.5-0.7v-1.9c1.1,0.5,2.3,0.7,3.5,0.7c1.7,0,2.2-0.7,2.2-1.6
	s-0.5-1.1-1.9-1.2C8,38.7,7,38,7,36.1C7,34.9,7.6,33,11,33c1.1,0,2.2,0.2,3.3,0.6v1.9c-1-0.5-2.1-0.7-3.3-0.7
	c-1.6,0-1.9,0.7-1.9,1.3s0.7,0.9,2,1.1C13.6,37.5,14.9,38.2,14.9,40.2"/>
<path class="st0" d="M20.6,36.4l-1.1,3.1h2.2L20.6,36.4z M15.8,43.4L19.9,33h1.5l4.1,10.4h-2.3l-0.8-2.1h-3.5l-0.8,2.2H15.8z"/>
<polygon class="st0" points="29.3,41.6 34,41.6 34,43.4 27.2,43.4 27.2,33 29.3,33 "/>
<path class="st0" d="M34.7,38.3c0-2.9,1.1-5.3,4.7-5.3c1.3,0,2.5,0.2,3.7,0.6v1.9c-1.2-0.5-2.5-0.7-3.7-0.8c-1.9,0-2.5,1.6-2.5,3.5
	c0,1.9,0.6,3.5,2.5,3.5c0.6,0,1.1,0,1.7-0.1v-2.3h-1.1v-1.8H43v5.3c-1.2,0.5-2.5,0.7-3.7,0.7C35.8,43.6,34.7,41.2,34.7,38.3"/>
<polygon class="st0" points="19.9,21.2 11.8,21.2 11.8,26.6 23.5,26.6 23.5,31.2 6.9,31.2 6.9,7 23.5,7 23.5,11.5 11.8,11.5 
	11.8,16.9 19.9,16.9 "/>
<polygon class="st0" points="32,26.6 43,26.6 43,31.2 27.2,31.2 27.2,6.9 32,6.9 "/>
</svg>
